<svg xmlns="http://www.w3.org/2000/svg" xmlns:xlink="http://www.w3.org/1999/xlink" width="144" height="144" viewBox="0 0 144 144">
  <defs>
    <clipPath id="clip-fb">
      <rect width="144" height="144"/>
    </clipPath>
  </defs>
  <g id="fb" clip-path="url(#clip-fb)">
    <g id="facebook_2_" data-name="facebook (2)" transform="translate(5.295 5.295)">
      <path id="Path_235" data-name="Path 235" d="M116.733,0H16.676A16.693,16.693,0,0,0,0,16.676V116.733a16.693,16.693,0,0,0,16.676,16.676H116.733a16.693,16.693,0,0,0,16.676-16.676V16.676A16.693,16.693,0,0,0,116.733,0Z" fill="#272a2a"/>
      <path id="Path_236" data-name="Path 236" d="M254.536,137.69H233.69V121.014c0-4.6,3.735-4.169,8.338-4.169h8.338V96H233.69a25.013,25.013,0,0,0-25.014,25.014V137.69H192v20.845h16.676v45.859H233.69V158.536H246.2Z" transform="translate(-141.972 -70.986)" fill="#fafafa"/>
    </g>
  </g>
</svg>
