<svg xmlns="http://www.w3.org/2000/svg" xmlns:xlink="http://www.w3.org/1999/xlink" width="144" height="144" viewBox="0 0 144 144">
  <defs>
    <clipPath id="clip-gp">
      <rect width="144" height="144"/>
    </clipPath>
  </defs>
  <g id="gp" clip-path="url(#clip-gp)">
    <path id="google-plus" d="M68.059,136.119A68.059,68.059,0,1,0,0,68.059,68.084,68.084,0,0,0,68.059,136.119ZM92.351,63.2h9.744V53.461h9.744V63.2H121.5v9.744h-9.659v9.744h-9.744V72.948H92.351ZM71.44,42.889l-9.222,8.95c-11.8-11.53-34.75-3.131-34.75,16.192,0,26.209,37.2,28,40.427,6.806H48.657V63.148H80.741c3.641,19.034-8.649,38.941-32.084,38.941v.006A33.979,33.979,0,0,1,14.621,68.059C14.627,37.784,50.54,23.475,71.44,42.889Z" transform="translate(4 4)" fill="#272a2a"/>
  </g>
</svg>
